<svg width="167" height="71" viewBox="0 0 167 71" fill="none" xmlns="http://www.w3.org/2000/svg">
<g clip-path="url(#clip0_67_567)">
<path d="M64.5239 43.9254H62.8736L63.024 43.3172C63.134 42.8941 63.2418 42.4379 63.3474 41.9465C63.4529 41.4551 63.5562 40.9858 63.6572 40.5362H63.7111C63.8211 40.9769 63.9311 41.4463 64.0411 41.9399C64.1512 42.4357 64.2612 42.8941 64.3712 43.3172L64.5216 43.9254H64.5239ZM67.8941 47.5856L64.9797 38.1871H62.4941L59.5842 47.5856H62.0069L62.447 45.7214H64.9505L65.3906 47.5856H67.8941V47.5856Z" fill="black"/>
<path d="M70.867 47.5835V43.8307C71.0309 43.4076 71.2487 43.1123 71.5204 42.947C71.7899 42.7795 72.0503 42.698 72.2973 42.698C72.4522 42.698 72.5892 42.709 72.7037 42.731C72.8182 42.7531 72.9394 42.7773 73.0674 42.806L73.4536 40.8073C73.3526 40.7632 73.2381 40.7279 73.1101 40.7059C72.9821 40.6839 72.8115 40.6729 72.6004 40.6729C72.2614 40.6729 71.9156 40.7786 71.5608 40.9902C71.2061 41.2017 70.903 41.5367 70.647 41.9972H70.5909L70.427 40.8359H68.5005V47.5879H70.867V47.5835Z" fill="black"/>
<path d="M76.4061 47.5835V43.8307C76.57 43.4076 76.7878 43.1123 77.0595 42.947C77.3289 42.7795 77.5894 42.698 77.8364 42.698C77.9913 42.698 78.1282 42.709 78.2428 42.731C78.3573 42.7531 78.4785 42.7773 78.6065 42.806L78.9927 40.8073C78.8916 40.7632 78.7771 40.7279 78.6491 40.7059C78.5212 40.6839 78.3505 40.6729 78.1395 40.6729C77.8004 40.6729 77.4547 40.7786 77.0999 40.9902C76.7451 41.2017 76.442 41.5367 76.1861 41.9972H76.1299L75.966 40.8359H74.0396V47.5879H76.4061V47.5835Z" fill="black"/>
<path d="M83.4205 43.3986H81.384C81.4581 43.0571 81.5928 42.8081 81.7904 42.656C81.988 42.504 82.2192 42.4268 82.4842 42.4268C82.8412 42.4268 83.0881 42.5238 83.2206 42.7177C83.3531 42.9116 83.4205 43.1386 83.4205 43.3986ZM85.43 43.9385C85.43 43.489 85.3671 43.0659 85.2436 42.6692C85.1201 42.2726 84.9338 41.9266 84.6868 41.6291C84.4398 41.3316 84.1277 41.098 83.7505 40.9262C83.3755 40.7543 82.9332 40.6705 82.4303 40.6705C82.0082 40.6705 81.5995 40.7521 81.2066 40.9129C80.8114 41.076 80.4611 41.3096 80.1535 41.6159C79.8459 41.9222 79.599 42.2924 79.4103 42.7287C79.2217 43.165 79.1274 43.6587 79.1274 44.2074C79.1274 44.7561 79.2195 45.2651 79.4036 45.7058C79.5877 46.1466 79.837 46.519 80.1535 46.8187C80.4701 47.1206 80.8428 47.3498 81.2739 47.5062C81.705 47.6627 82.1721 47.742 82.6773 47.742C83.0635 47.742 83.4811 47.6759 83.9369 47.5459C84.3904 47.4159 84.8058 47.2197 85.183 46.9575L84.4129 45.5802C84.1659 45.7147 83.9279 45.816 83.7034 45.8843C83.4788 45.9526 83.2476 45.9857 83.0073 45.9857C82.6234 45.9857 82.2866 45.9064 82.0037 45.7499C81.7185 45.5935 81.5232 45.3114 81.4109 44.9059H85.3312C85.3492 44.8244 85.3694 44.6944 85.3941 44.5137C85.4165 44.333 85.4278 44.1391 85.4278 43.9319" fill="black"/>
<path d="M88.8562 47.5833V43.154C89.0404 42.991 89.2043 42.8654 89.3525 42.775C89.4984 42.6847 89.6825 42.6406 89.9025 42.6406C90.1406 42.6406 90.3157 42.7133 90.4257 42.8565C90.5357 42.9998 90.5919 43.2885 90.5919 43.7204V47.5811H92.9584V43.4229C92.9584 42.5855 92.7878 41.9178 92.4487 41.4176C92.1097 40.9173 91.5641 40.6683 90.8119 40.6683C90.3449 40.6683 89.934 40.7653 89.5815 40.9592C89.229 41.1531 88.9146 41.3801 88.6384 41.6401H88.5823L88.4184 40.8292H86.4919V47.5811H88.8585L88.8562 47.5833Z" fill="black"/>
<path d="M98.5312 44.1259C98.5312 44.7738 98.4302 45.2233 98.2281 45.4768C98.026 45.728 97.788 45.8558 97.5118 45.8558C97.3569 45.8558 97.2042 45.8337 97.0583 45.7875C96.9123 45.7434 96.7686 45.6575 96.6317 45.5296V43.0461C96.7889 42.8655 96.937 42.7398 97.0785 42.6671C97.22 42.5944 97.3839 42.5591 97.568 42.5591C97.8891 42.5591 98.1293 42.6803 98.291 42.9227C98.4504 43.1651 98.5312 43.5662 98.5312 44.1237M100.952 44.0841C100.952 43.5706 100.887 43.1034 100.759 42.6803C100.631 42.2572 100.449 41.8981 100.215 41.6006C99.9817 41.3031 99.6988 41.0739 99.3687 40.913C99.0386 40.75 98.6727 40.6706 98.2685 40.6706C97.9654 40.6706 97.6668 40.7301 97.3749 40.8469C97.0807 40.9637 96.8158 41.1312 96.5778 41.3471L96.6317 40.3753V38.1871H94.2651V47.5856H96.1085L96.3016 46.8562H96.3555C96.6205 47.1537 96.9011 47.3763 97.1953 47.5239C97.4894 47.6716 97.7858 47.7465 98.0889 47.7465C98.4549 47.7465 98.8119 47.665 99.1554 47.5041C99.4989 47.341 99.8043 47.1052 100.069 46.7945C100.334 46.4838 100.55 46.1026 100.709 45.6464C100.869 45.1925 100.949 44.6724 100.949 44.0863" fill="black"/>
<path d="M105.932 43.3986H103.895C103.97 43.0571 104.104 42.8081 104.302 42.656C104.499 42.504 104.731 42.4268 104.996 42.4268C105.353 42.4268 105.6 42.5238 105.732 42.7177C105.865 42.9116 105.932 43.1386 105.932 43.3986M107.941 43.9385C107.941 43.489 107.879 43.0659 107.755 42.6692C107.632 42.2726 107.445 41.9266 107.198 41.6291C106.951 41.3316 106.639 41.098 106.262 40.9262C105.885 40.7543 105.445 40.6705 104.942 40.6705C104.52 40.6705 104.111 40.7521 103.718 40.9129C103.323 41.076 102.973 41.3096 102.665 41.6159C102.357 41.9222 102.11 42.2924 101.922 42.7287C101.733 43.165 101.639 43.6587 101.639 44.2074C101.639 44.7561 101.731 45.2651 101.915 45.7058C102.099 46.1466 102.348 46.519 102.665 46.8187C102.982 47.1206 103.354 47.3498 103.785 47.5062C104.217 47.6627 104.684 47.742 105.189 47.742C105.575 47.742 105.993 47.6759 106.448 47.5459C106.902 47.4159 107.317 47.2197 107.692 46.9575L106.922 45.5802C106.675 45.7147 106.437 45.816 106.213 45.8843C105.988 45.9526 105.757 45.9857 105.519 45.9857C105.133 45.9857 104.798 45.9064 104.515 45.7499C104.23 45.5935 104.035 45.3114 103.922 44.9059H107.843C107.861 44.8244 107.881 44.6944 107.906 44.5137C107.928 44.333 107.939 44.1391 107.939 43.9319" fill="black"/>
<path d="M111.368 47.5835V43.8307C111.531 43.4076 111.751 43.1123 112.021 42.947C112.29 42.7795 112.551 42.698 112.798 42.698C112.953 42.698 113.09 42.709 113.204 42.731C113.319 42.7531 113.44 42.7773 113.568 42.806L113.954 40.8073C113.853 40.7632 113.739 40.7279 113.611 40.7059C113.483 40.6839 113.312 40.6729 113.101 40.6729C112.762 40.6729 112.416 40.7786 112.061 40.9902C111.707 41.2017 111.403 41.5367 111.147 41.9972H111.091L110.927 40.8359H109.001V47.5879H111.368V47.5835Z" fill="black"/>
<path d="M120.084 35.3114V31.8936C120.084 31.1972 119.944 30.664 119.666 30.2893C119.388 29.9147 118.954 29.7296 118.366 29.7296C118.011 29.7296 117.69 29.8222 117.405 30.0073C117.118 30.1924 116.844 30.426 116.579 30.7058C116.451 30.3951 116.264 30.1549 116.02 29.9852C115.775 29.8156 115.449 29.7296 115.041 29.7296C114.695 29.7296 114.383 29.8156 114.107 29.9852C113.831 30.1549 113.577 30.3621 113.343 30.6067H113.298L113.209 29.8618H112.133V35.3114H113.433V31.5035C113.862 31.0518 114.25 30.827 114.598 30.827C114.893 30.827 115.108 30.9196 115.25 31.1047C115.389 31.2898 115.458 31.6071 115.458 32.0589V35.3114H116.758V31.5035C117.187 31.0518 117.576 30.827 117.924 30.827C118.211 30.827 118.422 30.9196 118.564 31.1047C118.703 31.2898 118.772 31.6071 118.772 32.0589V35.3114H120.084V35.3114Z" fill="black"/>
<path d="M109.526 33.846C109.315 34.0377 109.118 34.1854 108.934 34.2889C108.75 34.3925 108.543 34.4454 108.316 34.4454C108.089 34.4454 107.89 34.3903 107.739 34.2779C107.589 34.1677 107.512 33.9892 107.512 33.7446C107.512 33.6102 107.546 33.4846 107.613 33.3678C107.681 33.2488 107.795 33.1453 107.952 33.0527C108.112 32.9601 108.318 32.8764 108.574 32.8037C108.83 32.731 109.147 32.6715 109.524 32.6252V33.846H109.526ZM110.826 35.3114V32.0809C110.826 31.3184 110.656 30.7367 110.312 30.3334C109.969 29.9301 109.45 29.7296 108.756 29.7296C108.312 29.7296 107.896 29.8001 107.512 29.9412C107.128 30.0822 106.78 30.2475 106.473 30.4414L106.947 31.2964C107.196 31.1488 107.45 31.0231 107.71 30.9196C107.97 30.816 108.235 30.7631 108.507 30.7631C108.696 30.7631 108.853 30.7918 108.981 30.8469C109.109 30.9019 109.212 30.9791 109.293 31.0804C109.372 31.1796 109.428 31.2942 109.464 31.4242C109.497 31.5542 109.517 31.6886 109.526 31.8297C108.954 31.8892 108.462 31.9729 108.051 32.0853C107.64 32.1955 107.301 32.3343 107.034 32.4952C106.767 32.6582 106.569 32.8522 106.446 33.0769C106.322 33.3017 106.26 33.5595 106.26 33.8482C106.26 34.3286 106.41 34.7164 106.711 35.0073C107.012 35.3004 107.409 35.4458 107.899 35.4458C108.231 35.4458 108.539 35.3753 108.821 35.2343C109.104 35.0933 109.369 34.9192 109.618 34.712H109.663L109.753 35.3114H110.826V35.3114Z" fill="black"/>
<path d="M101.899 35.3114H103.199V31.8935C103.199 31.1972 103.062 30.6639 102.793 30.2893C102.521 29.9147 102.088 29.7295 101.493 29.7295C101.109 29.7295 100.774 29.8133 100.491 29.9786C100.209 30.146 99.9503 30.3355 99.7168 30.5493L99.7617 29.4938V27.473H98.4617V35.3092H99.7617V31.5013C99.9952 31.2787 100.204 31.1112 100.39 30.9966C100.575 30.882 100.788 30.8248 101.03 30.8248C101.34 30.8248 101.562 30.9173 101.697 31.1024C101.832 31.2875 101.901 31.6048 101.901 32.0566V35.3092L101.899 35.3114Z" fill="black"/>
<path d="M94.9073 33.9076C94.6311 33.5792 94.4942 33.1407 94.4942 32.592C94.4942 32.0433 94.6334 31.596 94.9118 31.2654C95.1902 30.9371 95.5562 30.7718 96.0097 30.7718C96.1826 30.7718 96.3443 30.8071 96.4902 30.8776C96.6362 30.9481 96.7866 31.0451 96.937 31.1707L97.5702 30.3377C97.3659 30.168 97.1346 30.0226 96.8742 29.9058C96.6137 29.7868 96.3039 29.7273 95.9401 29.7273C95.5764 29.7273 95.2171 29.7912 94.8826 29.9212C94.548 30.0512 94.2517 30.2385 93.9957 30.4809C93.7397 30.7255 93.5354 31.0252 93.385 31.38C93.2345 31.7348 93.1582 32.1381 93.1582 32.5898C93.1582 33.0416 93.2256 33.4448 93.3625 33.7996C93.4995 34.1544 93.6858 34.4541 93.9283 34.6987C94.1686 34.9433 94.4537 35.1284 94.7816 35.254C95.1094 35.3796 95.4619 35.4435 95.8391 35.4435C96.1557 35.4435 96.47 35.3884 96.7844 35.2761C97.0965 35.1659 97.3861 34.9984 97.6488 34.7758L97.1167 33.9318C96.9595 34.0574 96.7821 34.1676 96.5913 34.2602C96.3982 34.3527 96.1939 34.399 95.9761 34.399C95.5382 34.399 95.1812 34.2337 94.9073 33.9054" fill="black"/>
<path d="M91.0454 35.3113H92.1075V29.8617H90.8074V33.5902C90.5964 33.8569 90.3988 34.0486 90.2147 34.1676C90.0306 34.2866 89.8173 34.3461 89.5748 34.3461C89.2739 34.3461 89.0539 34.2535 88.9191 34.0684C88.7844 33.8833 88.7148 33.566 88.7148 33.1143V29.8617H87.4148V33.2795C87.4148 33.9759 87.5495 34.5092 87.8212 34.8838C88.0929 35.2584 88.5262 35.4435 89.1212 35.4435C89.5052 35.4435 89.8397 35.3576 90.1226 35.1879C90.4055 35.0182 90.6682 34.7912 90.9085 34.5114H90.9422L91.0432 35.3113H91.0454Z" fill="black"/>
<path d="M86.5459 30.9504L86.7727 29.8398C86.6155 29.7649 86.4045 29.7296 86.1395 29.7296C85.8454 29.7296 85.558 29.8244 85.2796 30.0117C85.0012 30.2012 84.7632 30.4722 84.5678 30.827H84.5229L84.4331 29.8618H83.3599V35.3114H84.6599V31.9817C84.8328 31.5674 85.0393 31.2766 85.2818 31.1113C85.5243 30.9438 85.7534 30.8623 85.9711 30.8623C86.0924 30.8623 86.1934 30.8689 86.2765 30.8843C86.3596 30.8997 86.4494 30.9218 86.5482 30.9504" fill="black"/>
<path d="M80.9372 32.5149C80.9372 33.1364 80.8137 33.6035 80.5644 33.9186C80.3152 34.2338 80.0076 34.3902 79.6371 34.3902C79.471 34.3902 79.2914 34.3572 79.1005 34.2911C78.9074 34.225 78.7143 34.106 78.519 33.9363V31.3933C78.9411 30.9856 79.3475 30.7829 79.7404 30.7829C80.1625 30.7829 80.4679 30.9349 80.6565 31.239C80.8451 31.5431 80.9394 31.9684 80.9394 32.5149M82.2843 32.4929C82.2843 32.072 82.2349 31.6908 82.1384 31.3492C82.0396 31.0098 81.8959 30.719 81.7095 30.4788C81.5209 30.2386 81.2919 30.0535 81.0202 29.9235C80.7486 29.7934 80.4387 29.7295 80.0929 29.7295C79.8055 29.7295 79.5249 29.7934 79.2509 29.919C78.9748 30.0447 78.7211 30.2077 78.4875 30.4083L78.5212 29.4982V27.4774H77.2212V35.3135H78.2495L78.3618 34.7362H78.3955C78.629 34.9654 78.876 35.1417 79.1364 35.2629C79.3969 35.3841 79.6551 35.4458 79.9111 35.4458C80.2209 35.4458 80.5173 35.3797 80.8047 35.2452C81.0921 35.1108 81.3436 34.9191 81.5636 34.6679C81.7814 34.4167 81.9588 34.1082 82.089 33.7402C82.2215 33.3743 82.2866 32.9579 82.2866 32.4907" fill="black"/>
<path d="M76.2715 28.4845L76.5207 27.5303C76.3927 27.4796 76.24 27.4334 76.0627 27.3981C75.8853 27.3629 75.6989 27.343 75.5036 27.343C75.1713 27.343 74.8906 27.3915 74.6616 27.4863C74.4326 27.5832 74.2417 27.7176 74.0913 27.8917C73.9408 28.0658 73.8308 28.273 73.7635 28.5131C73.6961 28.7533 73.6624 29.0134 73.6624 29.2954V29.8618L72.917 29.9169V30.871H73.6624V35.3114H74.9625V30.871H76.0492V29.8618H74.9625V29.2734C74.9625 28.6586 75.196 28.3523 75.663 28.3523C75.8673 28.3523 76.0694 28.3964 76.2737 28.4845" fill="black"/>
<path d="M70.9185 35.3113H71.9805V29.8617H70.6805V33.5902C70.4694 33.8569 70.2718 34.0486 70.0877 34.1676C69.9036 34.2866 69.6903 34.3461 69.4478 34.3461C69.1469 34.3461 68.9269 34.2535 68.7922 34.0684C68.6575 33.8833 68.5879 33.566 68.5879 33.1143V29.8617H67.2878V33.2795C67.2878 33.9759 67.4226 34.5092 67.6942 34.8838C67.9659 35.2584 68.3993 35.4435 68.9943 35.4435C69.3782 35.4435 69.7128 35.3576 69.9957 35.1879C70.2786 35.0182 70.5413 34.7912 70.7815 34.5114H70.8152L70.9162 35.3113H70.9185Z" fill="black"/>
<path d="M64.5085 32.3365H62.6202L62.8806 31.4484C63.0019 31.0628 63.1141 30.6705 63.2197 30.2673C63.3252 29.864 63.4307 29.4585 63.5362 29.0509H63.5811C63.6867 29.4497 63.7945 29.853 63.9045 30.2606C64.0145 30.6683 64.129 31.0628 64.2502 31.4484L64.5107 32.3365H64.5085ZM66.7582 35.3114L64.1088 27.5061H63.0333L60.4041 35.3114H61.7378L62.3148 33.3457H64.8026L65.3796 35.3114H66.7582V35.3114Z" fill="black"/>
<path d="M117.951 43.1277C117.951 43.4516 117.881 43.6896 117.744 43.8439C117.607 43.9981 117.428 44.0731 117.208 44.0731C116.988 44.0731 116.808 43.9959 116.671 43.8439C116.534 43.6918 116.464 43.4516 116.464 43.1277C116.464 42.8038 116.534 42.5812 116.671 42.4314C116.808 42.2837 116.988 42.2088 117.208 42.2088C117.428 42.2088 117.607 42.2837 117.744 42.4314C117.881 42.579 117.951 42.8126 117.951 43.1277ZM116.271 47.8259C116.372 47.8523 116.494 47.8721 116.635 47.8876C116.777 47.9008 116.985 47.9074 117.262 47.9074H117.798C118.092 47.9074 118.319 47.9294 118.479 47.9757C118.638 48.0198 118.719 48.1322 118.719 48.3129C118.719 48.5024 118.591 48.6522 118.333 48.7646C118.077 48.877 117.756 48.9343 117.369 48.9343C116.983 48.9343 116.64 48.8836 116.393 48.7866C116.146 48.6875 116.02 48.531 116.02 48.3151C116.02 48.2159 116.04 48.13 116.083 48.0594C116.123 47.9867 116.186 47.9118 116.269 47.8303M120.998 40.7654C120.897 40.7213 120.782 40.6861 120.654 40.664C120.526 40.642 120.356 40.631 120.145 40.631C119.805 40.631 119.46 40.7368 119.105 40.9483C119.015 41.0012 118.93 41.0629 118.847 41.1312C118.276 40.7786 117.542 40.6751 117.203 40.6751C116.826 40.6751 116.462 40.7257 116.11 40.8227C115.757 40.9219 115.443 41.0717 115.167 41.2744C114.893 41.4772 114.671 41.7328 114.507 42.0435C114.343 42.3542 114.26 42.7156 114.26 43.1299C114.26 43.5442 114.354 43.8725 114.543 44.17C114.731 44.4675 114.949 44.6967 115.196 44.8576V44.9126C114.958 45.0735 114.769 45.2674 114.632 45.4922C114.495 45.717 114.426 45.9462 114.426 46.1797C114.426 46.4684 114.484 46.702 114.605 46.8827C114.724 47.0634 114.875 47.2154 115.059 47.3411V47.3939C114.417 47.7267 114.096 48.1586 114.096 48.6897C114.096 48.996 114.174 49.2538 114.329 49.4654C114.484 49.6769 114.693 49.851 114.956 49.9854C115.218 50.1198 115.521 50.2168 115.872 50.2763C116.22 50.3358 116.592 50.3644 116.985 50.3644C117.601 50.3644 118.153 50.3049 118.642 50.1882C119.132 50.0714 119.55 49.9039 119.895 49.6879C120.239 49.472 120.506 49.2141 120.692 48.9122C120.881 48.6103 120.975 48.2754 120.975 47.9052C120.975 47.2838 120.74 46.8364 120.266 46.561C119.794 46.2855 119.125 46.1489 118.263 46.1489H117.232C116.884 46.1489 116.635 46.1202 116.489 46.0607C116.343 46.0034 116.269 45.8977 116.269 45.7434C116.269 45.6443 116.278 45.5693 116.296 45.5208C116.314 45.4724 116.359 45.4151 116.433 45.3512C116.718 45.4151 116.974 45.4459 117.203 45.4459C117.589 45.4459 117.951 45.4041 118.29 45.3181C118.629 45.2322 118.923 45.1 119.17 44.9193C119.417 44.7386 119.615 44.5072 119.763 44.2229C119.909 43.9386 119.983 43.5993 119.983 43.2026C119.983 43.0682 119.972 42.9382 119.949 42.8104C119.931 42.7178 119.913 42.6407 119.895 42.5724C120.138 42.5724 120.389 42.6098 120.614 42.7509L121 40.7522L120.998 40.7654Z" fill="black"/>
<path d="M49.8868 44.3022C50.7287 41.5984 49.5589 38.8482 47.2732 38.1629C44.9875 37.4776 42.4503 39.1127 41.6083 41.8187C42.4503 39.1149 41.2805 36.3647 38.9948 35.6794C36.7091 34.9941 34.1719 36.6292 33.3299 39.3352C33.303 39.4256 33.276 39.5159 33.2536 39.6041C32.3824 42.8655 33.9609 46.4684 34.7826 48.4671C35.6269 50.5209 37.5331 54.9039 36.5676 58C37.5309 54.9039 41.6083 52.3147 43.4787 51.0762C45.2974 49.8708 48.6608 47.7487 49.7969 44.5667C49.8284 44.4785 49.8576 44.3904 49.8868 44.3022" fill="#F39200"/>
<path d="M47.1678 45.1594C47.7831 43.1872 46.9298 41.1841 45.2638 40.6838C43.5978 40.1836 41.7477 41.3758 41.1347 43.348C41.7499 41.3758 40.8967 39.3727 39.2307 38.8724C37.5647 38.3722 35.7168 39.5666 35.1016 41.5366C35.0814 41.6027 35.0634 41.6666 35.0455 41.7328C34.4101 44.1105 35.5596 46.7372 36.1591 48.1938C36.7744 49.6901 38.1642 52.8876 37.4614 55.1441C38.1642 52.8876 41.137 50.999 42.4999 50.0978C43.8268 49.2185 46.2765 47.6716 47.105 45.3533C47.1274 45.2894 47.1499 45.2255 47.1701 45.1594" fill="#FFDD00"/>
<path d="M44.6531 45.9504C45.0572 44.6569 44.4959 43.3413 43.4025 43.013C42.309 42.6847 41.0965 43.4669 40.6924 44.7605C41.0965 43.4669 40.5352 42.1514 39.4418 41.823C38.3483 41.4947 37.1358 42.277 36.7317 43.5705C36.7182 43.6146 36.707 43.6565 36.6958 43.6983C36.2781 45.2585 37.0325 46.9817 37.4277 47.9381C37.8319 48.9187 38.7435 51.0166 38.2809 52.4974C38.7412 51.0166 40.6924 49.7782 41.586 49.1854C42.4572 48.608 44.0648 47.5944 44.6082 46.0716C44.6239 46.0298 44.6374 45.9879 44.6508 45.9438" fill="white"/>
<path d="M47.5203 22.8454C47.5966 24.4761 47.509 26.1398 47.2508 27.8124L44.9135 27.1116C45.6522 25.5823 46.5278 24.1544 47.5203 22.8454ZM51.2475 30.2033C52.4846 24.5708 52.0603 18.9604 50.2775 14C45.9732 17.1336 42.4234 21.5519 40.241 26.9001C39.3002 27.1866 37.4501 28.3236 36.0625 32.7838L39.1924 33.7225L42.5941 34.7428C42.7288 33.782 42.9219 32.8146 43.1734 31.8517L45.9935 32.6979C45.6522 33.6366 45.2615 34.5423 44.8259 35.4127L48.2298 36.433L51.3597 37.374C52.7496 32.9138 51.8627 30.957 51.2475 30.2033" fill="#80166F"/>
</g>
<defs>
<clipPath id="clip0_67_567">
<rect width="88" height="44" fill="white" transform="translate(33 14)"/>
</clipPath>
</defs>
</svg>
