<svg width="167" height="71" viewBox="0 0 167 71" fill="none" xmlns="http://www.w3.org/2000/svg">
<path d="M28.9507 45.0412C28.0843 44.9279 28.5631 43.8625 27.4231 42.8425C26.2831 41.8225 24.8923 41.7545 24.8923 40.3719C24.8923 40.0772 25.2571 39.9185 25.8955 39.7599C32.5075 38.1732 69.2839 37.0625 83.4199 36.8585C98.9239 36.6319 124.802 36.9039 126.352 37.9692C127.766 38.9665 125.988 39.3065 126.808 39.8959C127.629 40.4852 134.15 40.2359 134.857 41.1652C135.564 42.0945 134.743 44.6332 133.261 44.7012C131.779 44.7919 123.571 42.8879 103.78 42.5479C84.5143 42.2079 50.8843 43.2052 42.5623 43.8625C35.5399 44.4292 29.8171 45.1319 28.9507 45.0412Z" fill="#0F4496"/>
<path d="M29.4067 28.7439C29.8855 28.3132 30.5011 28.0639 31.1623 28.0412C32.8267 28.0412 33.3967 29.4239 33.3967 31.1012C33.3967 33.0732 32.8723 34.9772 31.0483 34.9772C30.0907 34.9772 29.5663 34.7279 29.1331 34.2972C29.0647 34.5012 28.8367 34.9772 28.6999 34.9772C28.6315 34.9546 28.5631 34.9319 28.4947 34.8866L28.1527 34.6599C28.0387 34.5919 27.9475 34.5466 27.9475 34.4786C27.9475 34.4106 28.0615 34.3199 28.1527 34.0706C28.3123 33.7759 28.3807 33.4359 28.3807 33.0959V25.2759C28.3807 25.1852 28.4263 25.1172 28.4719 25.1172L29.1559 24.9586C29.2243 24.9359 29.2699 24.9359 29.3155 24.9359C29.4067 24.9359 29.4067 25.0492 29.4067 25.1172V28.7439ZM29.4067 33.5492C29.8171 33.8666 30.3187 34.0479 30.8431 34.0706C32.1427 34.0706 32.2567 32.5066 32.2567 31.0786C32.2567 30.0132 32.1427 28.9706 31.0255 28.9706C30.2275 28.9706 29.9539 29.2652 29.4067 29.6506V33.5492Z" fill="#1D1D1B"/>
<path d="M39.6669 34.1613C39.6897 34.2066 39.7125 34.2293 39.7125 34.2746C39.7125 34.4333 38.5497 34.9773 37.5465 34.9773C35.7225 34.9546 34.6509 33.5719 34.6509 31.5093C34.6509 29.4919 35.6769 28.0413 37.3641 28.0413C39.6669 28.0413 39.8721 30.2626 39.8721 31.4186C39.8721 31.6226 39.8721 31.7133 39.7125 31.7133H35.7681C35.7681 32.5519 36.1101 34.0479 37.6605 34.0479C38.5497 34.0479 39.2793 33.4813 39.3477 33.4813C39.3933 33.4813 39.4161 33.5266 39.4389 33.5719L39.6669 34.1613ZM38.7321 30.8973C38.7321 30.1946 38.5041 28.9026 37.2957 28.9026C36.0189 28.9026 35.7453 30.2173 35.7453 30.8973H38.7321V30.8973Z" fill="#1D1D1B"/>
<path d="M41.5593 25.2759C41.5593 25.1852 41.6049 25.1172 41.6505 25.1172L42.3345 24.9586C42.4029 24.9359 42.4485 24.9359 42.4941 24.9359C42.5853 24.9359 42.5853 25.0492 42.5853 25.1172V29.0159C43.0185 28.6532 43.7481 28.0866 44.7513 28.0866C46.2789 28.0866 46.3929 29.1519 46.3929 30.1266V34.6599C46.4157 34.7506 46.3473 34.8186 46.2561 34.8186C46.2333 34.8186 46.2333 34.8186 46.2105 34.8186H45.5037C45.4125 34.8412 45.3441 34.7732 45.3441 34.6826C45.3441 34.6599 45.3441 34.6599 45.3441 34.6372V30.0812C45.3441 29.4919 45.1845 28.9706 44.4549 28.9706C43.5657 28.9706 42.9501 29.5146 42.6081 29.8092V34.6372C42.6309 34.7279 42.5625 34.7959 42.4713 34.7959C42.4485 34.7959 42.4485 34.7959 42.4257 34.7959H41.7189C41.6277 34.8186 41.5593 34.7506 41.5593 34.6599C41.5593 34.6372 41.5593 34.6372 41.5593 34.6146V25.2759Z" fill="#1D1D1B"/>
<path d="M50.1321 34.6146C50.1549 34.7052 50.0865 34.7732 49.9953 34.7732C49.9725 34.7732 49.9725 34.7732 49.9497 34.7732H49.2429C49.1517 34.7959 49.0833 34.7279 49.0833 34.6372C49.0833 34.6146 49.0833 34.6146 49.0833 34.5919V29.0839H48.0117C47.9205 29.1066 47.8521 29.0386 47.8521 28.9479C47.8521 28.9252 47.8521 28.9252 47.8521 28.9026V28.4039C47.8293 28.3132 47.8977 28.2452 47.9889 28.2452C48.0117 28.2452 48.0117 28.2452 48.0345 28.2452H49.9725C50.1321 28.2452 50.1549 28.3359 50.1549 28.4492L50.1321 34.6146ZM49.5393 26.6812C49.0833 26.6812 48.6957 26.2959 48.6957 25.8426C48.6957 25.3892 49.0833 25.0039 49.5393 25.0039C49.9953 25.0039 50.3829 25.3892 50.3829 25.8426C50.3829 26.2959 50.0181 26.6812 49.5393 26.6812Z" fill="#1D1D1B"/>
<path d="M57.314 34.6146C57.3368 34.7053 57.2684 34.7733 57.1772 34.7733C57.1544 34.7733 57.1544 34.7733 57.1316 34.7733H56.4248C56.3336 34.7959 56.2652 34.7279 56.2652 34.6373C56.2652 34.6146 56.2652 34.6146 56.2652 34.5919V30.0586C56.2652 29.4693 56.1056 28.9479 55.376 28.9479C54.4868 28.9479 53.894 29.4919 53.552 29.7866V34.6146C53.5748 34.7053 53.5064 34.7733 53.4152 34.7733C53.3924 34.7733 53.3924 34.7733 53.3696 34.7733H52.6628C52.5716 34.7959 52.5032 34.7279 52.5032 34.6373C52.5032 34.6146 52.5032 34.6146 52.5032 34.5919V29.9226C52.526 29.6506 52.5032 29.3786 52.4348 29.1066C52.3664 28.9026 52.298 28.7213 52.2068 28.5399C52.2068 28.5173 52.2296 28.4719 52.2752 28.4493L52.8908 28.1093C52.9136 28.0866 52.9592 28.0413 53.0048 28.0413C53.2556 28.0413 53.4152 28.8573 53.438 28.9706C53.894 28.6079 54.6008 28.0413 55.6496 28.0413C57.1772 28.0413 57.2912 29.1066 57.2912 30.0813V34.6146H57.314V34.6146Z" fill="#1D1D1B"/>
<path d="M63.9261 32.6199C63.9261 33.2319 63.9261 33.6399 64.0857 33.9799C64.1769 34.1386 64.2681 34.3199 64.3365 34.4786C64.3365 34.5466 64.2681 34.5692 64.1997 34.5919L63.6525 34.9319C63.6069 34.9546 63.5841 34.9772 63.5385 34.9772C63.3333 34.9772 63.1053 34.3879 63.0369 34.1612C62.6949 34.3879 62.0337 34.9772 61.0077 34.9772C59.5257 34.9772 58.8645 33.3452 58.8645 31.6452C58.8645 29.6732 59.5713 28.0412 61.1673 28.0412C61.7601 28.0186 62.3529 28.1772 62.8545 28.5172V25.2759C62.8545 25.1852 62.9001 25.1172 62.9457 25.1172L63.6297 24.9586C63.6981 24.9359 63.7437 24.9359 63.7893 24.9359C63.9033 24.9359 63.9033 25.0492 63.9033 25.1172L63.9261 32.6199ZM62.9001 29.4239C62.4213 29.1292 61.8741 28.9706 61.3269 28.9706C60.1413 28.9706 60.0273 30.3079 60.0273 31.6226C60.0273 32.7786 60.1185 34.0706 61.2357 34.0706C61.9425 34.0706 62.5581 33.4586 62.8773 33.2546L62.9001 29.4239Z" fill="#1D1D1B"/>
<path d="M70.424 34.1613C70.4468 34.2066 70.4696 34.2293 70.4696 34.2746C70.4696 34.4333 69.3068 34.9773 68.3036 34.9773C66.4796 34.9546 65.408 33.5719 65.408 31.5093C65.408 29.4919 66.434 28.0413 68.1212 28.0413C70.424 28.0413 70.6292 30.2626 70.6292 31.4186C70.6292 31.6226 70.6292 31.7133 70.4696 31.7133H66.5252C66.5252 32.5519 66.8672 34.0479 68.4176 34.0479C69.3068 34.0479 70.0364 33.4813 70.1048 33.4813C70.1504 33.4813 70.1732 33.5266 70.196 33.5719L70.424 34.1613ZM69.4892 30.8973C69.4892 30.1946 69.2612 28.9026 68.0528 28.9026C66.776 28.9026 66.5024 30.2173 66.5024 30.8973H69.4892V30.8973Z" fill="#1D1D1B"/>
<path d="M73.3881 34.6146C73.4109 34.7053 73.3425 34.7733 73.2513 34.7733C73.2285 34.7733 73.2285 34.7733 73.2057 34.7733H72.4989C72.4077 34.7959 72.3393 34.7279 72.3393 34.6373C72.3393 34.6146 72.3393 34.6146 72.3393 34.5919V29.9453C72.3393 29.5826 72.2481 29.2199 72.1113 28.9026C72.0429 28.7893 71.9745 28.6759 71.9517 28.5626C71.9745 28.4946 71.9973 28.4493 72.0429 28.4266L72.5445 28.1093C72.5901 28.0639 72.6357 28.0413 72.6813 28.0413C72.9321 28.0413 73.1601 28.9026 73.2285 29.1973C73.5933 28.8119 74.0949 28.0413 74.8701 28.0413C75.1893 28.0413 75.5541 28.1546 75.5541 28.2679C75.5313 28.3133 75.5313 28.3586 75.5085 28.3813L75.2121 29.0839C75.1893 29.1066 75.1893 29.1746 75.1209 29.1746C74.9841 29.1066 74.8245 29.0613 74.6649 29.0386C74.1861 29.0386 73.7073 29.7413 73.3653 30.1039V34.6146H73.3881V34.6146Z" fill="#1D1D1B"/>
<path d="M80.5472 34.2745C80.57 34.3199 80.57 34.3652 80.57 34.4105C80.57 34.5918 79.544 34.9772 78.7916 34.9772C78.3128 34.9999 77.834 34.8185 77.492 34.5012C77.0816 34.0705 77.0816 33.4585 77.0816 32.9598V29.0838H76.1012C76.01 29.0838 76.01 28.9932 76.01 28.9252V28.4038C76.01 28.3132 76.01 28.2452 76.1012 28.2452H77.1272V26.3638C77.1272 26.2732 77.1956 26.2278 77.2868 26.2052L78.0164 26.0012C78.062 26.0012 78.0848 25.9785 78.1076 25.9785C78.176 25.9785 78.176 26.0465 78.176 26.1372V28.2452H80.2052C80.2964 28.2452 80.3648 28.2678 80.3648 28.3358C80.3648 28.3585 80.342 28.4038 80.342 28.4265L80.1596 28.9705C80.114 29.0385 80.0456 29.1065 79.9772 29.1065H78.1532V32.9825C78.1532 33.5265 78.1532 34.0932 78.974 34.0932C79.6124 34.0932 80.1824 33.7305 80.2964 33.7305C80.342 33.7305 80.3876 33.7759 80.3876 33.8212L80.5472 34.2745Z" fill="#1D1D1B"/>
<path d="M85.4491 31.6226C85.4491 31.7359 85.4036 31.7586 85.2896 31.7586H81.3451C81.2311 31.7586 81.1855 31.7132 81.1855 31.5772V31.0559C81.1855 30.8972 81.2083 30.8292 81.3223 30.8292H85.2667C85.3807 30.8292 85.4263 30.8972 85.4263 31.0332V31.6226H85.4491V31.6226Z" fill="#1D1D1B"/>
<path d="M92.3347 34.6146C92.3575 34.7053 92.2891 34.7733 92.1979 34.7733C92.1751 34.7733 92.1751 34.7733 92.1523 34.7733H91.4455C91.3543 34.7959 91.2859 34.7279 91.2859 34.6373C91.2859 34.6146 91.2859 34.6146 91.2859 34.5919V30.0586C91.2859 29.4693 91.1263 28.9479 90.3967 28.9479C89.5075 28.9479 88.9147 29.4919 88.5727 29.7866V34.6146C88.5955 34.7053 88.5271 34.7733 88.4359 34.7733C88.4131 34.7733 88.4131 34.7733 88.3903 34.7733H87.6835C87.5923 34.7959 87.5239 34.7279 87.5239 34.6373C87.5239 34.6146 87.5239 34.6146 87.5239 34.5919V29.9226C87.5467 29.6506 87.5239 29.3786 87.4555 29.1066C87.3871 28.9026 87.3187 28.7213 87.2275 28.5399C87.2275 28.5173 87.2503 28.4719 87.2959 28.4493L87.9115 28.1093C87.9343 28.0866 87.9799 28.0413 88.0255 28.0413C88.2763 28.0413 88.4359 28.8573 88.4587 28.9706C88.9147 28.6079 89.6215 28.0413 90.6703 28.0413C92.1979 28.0413 92.3119 29.1066 92.3119 30.0813L92.3347 34.6146Z" fill="#1D1D1B"/>
<path d="M98.4909 32.6199C98.4909 33.4812 98.5365 33.6172 98.6505 33.9799C98.7189 34.1386 98.9013 34.4106 98.9013 34.4786C98.9013 34.5466 98.8329 34.5692 98.7645 34.5919L98.2173 34.9319C98.1717 34.9546 98.1489 34.9772 98.1033 34.9772C97.8981 34.9772 97.6473 34.2519 97.5789 34.0479C97.0773 34.6146 96.3477 34.9319 95.5953 34.9772C94.5009 34.9772 93.8169 34.2746 93.8169 33.0506C93.8169 30.7386 96.5529 30.6932 97.4193 30.6706V30.1719C97.4193 29.3786 97.1685 28.9479 96.1881 28.9479C95.2761 28.9479 94.6377 29.3786 94.5009 29.3786C94.4553 29.3786 94.4097 29.3559 94.4097 29.3106L94.2273 28.8346C94.2045 28.7666 94.1817 28.7212 94.1817 28.6532C94.1817 28.4266 95.4585 28.0186 96.3249 28.0186C97.8981 28.0186 98.4453 28.7892 98.4453 29.9226L98.4909 32.6199ZM97.4649 31.5319C96.8493 31.5546 94.8885 31.5546 94.8885 32.9826C94.8885 33.5266 95.1849 34.1386 95.8917 34.1386C96.5985 34.1386 97.2369 33.4812 97.4649 33.2772V31.5319V31.5319Z" fill="#1D1D1B"/>
<path d="M106.995 28.4038C106.995 28.3132 107.041 28.2452 107.086 28.2452L107.77 28.0865C107.839 28.0638 107.884 28.0638 107.93 28.0638C108.021 28.0638 108.021 28.1772 108.021 28.2452V33.0958C107.998 33.4132 108.067 33.7078 108.181 34.0025C108.295 34.1612 108.386 34.3425 108.454 34.5238C108.454 34.5918 108.386 34.6145 108.318 34.6372L107.77 34.9772C107.725 34.9998 107.702 35.0225 107.656 35.0225C107.451 35.0225 107.292 34.5238 107.155 34.2065C106.767 34.5238 106.015 35.0225 105.24 35.0225C103.393 35.0225 103.233 33.9572 103.233 32.9825V28.4038C103.233 28.3132 103.279 28.2452 103.324 28.2452L104.008 28.0865C104.077 28.0638 104.122 28.0638 104.168 28.0638C104.259 28.0638 104.259 28.1772 104.259 28.2452V32.9598C104.259 33.5492 104.487 34.0705 105.399 34.0705C105.832 34.0705 106.699 33.6172 106.972 33.3678L106.995 28.4038Z" fill="#1D1D1B"/>
<path d="M115.112 34.6146C115.135 34.7053 115.066 34.7733 114.975 34.7733C114.952 34.7733 114.952 34.7733 114.93 34.7733H114.223C114.132 34.7959 114.063 34.7279 114.063 34.6373C114.063 34.6146 114.063 34.6146 114.063 34.5919V30.0586C114.063 29.4693 113.904 28.9479 113.174 28.9479C112.285 28.9479 111.692 29.4919 111.35 29.7866V34.6146C111.373 34.7053 111.304 34.7733 111.213 34.7733C111.19 34.7733 111.19 34.7733 111.168 34.7733H110.461C110.37 34.7959 110.301 34.7279 110.301 34.6373C110.301 34.6146 110.301 34.6146 110.301 34.5919V29.9226C110.324 29.6506 110.301 29.3786 110.233 29.1066C110.164 28.9026 110.096 28.7213 110.005 28.5399C110.005 28.5173 110.028 28.4719 110.073 28.4493L110.689 28.1093C110.712 28.0866 110.757 28.0413 110.803 28.0413C111.054 28.0413 111.213 28.8573 111.236 28.9706C111.692 28.6079 112.399 28.0413 113.448 28.0413C114.975 28.0413 115.089 29.1066 115.089 30.0813L115.112 34.6146Z" fill="#1D1D1B"/>
<path d="M121.724 32.6199C121.724 33.2319 121.724 33.6399 121.884 33.9799C121.975 34.1386 122.066 34.3199 122.135 34.4786C122.135 34.5466 122.066 34.5692 121.998 34.5919L121.451 34.9319C121.405 34.9546 121.382 34.9772 121.337 34.9772C121.131 34.9772 120.903 34.3879 120.835 34.1612C120.493 34.3879 119.832 34.9772 118.806 34.9772C117.324 34.9772 116.663 33.3452 116.663 31.6452C116.663 29.6732 117.369 28.0412 118.965 28.0412C119.558 28.0186 120.151 28.1772 120.653 28.5172V25.2759C120.653 25.1852 120.698 25.1172 120.744 25.1172L121.428 24.9586C121.496 24.9359 121.542 24.9359 121.587 24.9359C121.701 24.9359 121.701 25.0492 121.701 25.1172L121.724 32.6199ZM120.675 29.4239C120.197 29.1292 119.649 28.9706 119.102 28.9706C117.917 28.9706 117.803 30.3079 117.803 31.6226C117.803 32.7786 117.894 34.0706 119.011 34.0706C119.718 34.0706 120.333 33.4586 120.653 33.2546V29.4239H120.675Z" fill="#1D1D1B"/>
<path d="M125.919 30.9879C125.919 31.1466 125.896 31.1693 125.714 31.1693H125.167C125.007 31.1693 124.961 31.1466 124.961 30.9879V29.4693C124.961 29.2426 124.961 29.1066 125.098 29.0613C125.372 28.9479 126.877 28.7666 126.877 27.4519C126.877 26.5906 126.375 26.1373 125.486 26.1373C124.688 26.1373 124.027 26.5453 123.867 26.5453C123.776 26.5226 123.73 26.4773 123.707 26.4093L123.502 25.9333C123.479 25.8879 123.479 25.8653 123.479 25.8426C123.479 25.5479 124.802 25.2306 125.554 25.2306C126.763 25.2306 127.948 25.7746 127.948 27.4293C127.948 29.1519 126.466 29.5826 125.851 29.7413L125.919 30.9879ZM125.486 34.9773C124.961 34.9773 124.528 34.5466 124.528 34.0253C124.528 33.5039 124.961 33.0733 125.486 33.0733C126.01 33.0733 126.443 33.5039 126.443 34.0253C126.443 34.5466 126.01 34.9773 125.486 34.9773Z" fill="#1D1D1B"/>
</svg>
