<svg width="167" height="71" viewBox="0 0 167 71" fill="none" xmlns="http://www.w3.org/2000/svg">
<g clip-path="url(#clip0_67_612)">
<path fill-rule="evenodd" clip-rule="evenodd" d="M68.8966 26.5739H90.5059C90.5059 26.5739 93.0457 26.6184 94.7846 27.1954C96.6339 27.8084 97.9479 29.1167 98.017 31.0877C98.0683 32.5856 97.465 33.5513 96.3462 34.5521C94.9722 35.7809 91.9312 36.301 91.9312 36.301C91.9312 36.301 95.9074 36.186 97.4919 37.7721C98.6088 38.8907 99.1392 39.8887 99.1498 41.469C99.1651 43.7618 97.7417 45.1391 95.739 46.2616C94.4 47.0124 91.899 47.1283 91.899 47.1283L68.8499 47.1456V45.2377C68.8499 45.2377 70.326 45.3814 70.8943 44.7924C71.3472 44.3231 71.3614 43.6028 71.3614 43.6028V30.2248C71.3614 30.2248 71.3295 29.3973 71.0346 29.0003C70.5236 28.3112 68.8966 28.475 68.8966 28.475V26.5739ZM77.5278 28.5731C76.97 28.5731 76.5176 29.0247 76.5176 29.5816V44.166C76.5176 44.7234 76.97 45.1745 77.5278 45.1745H81.2078C81.7658 45.1745 82.2173 44.7234 82.2173 44.166V29.5816C82.2173 29.0247 81.7658 28.5731 81.2078 28.5731H77.5278ZM87.0726 35.7483C87.0726 35.7483 89.6786 35.8001 90.9001 34.8787C92.0875 33.9823 92.8347 33.0429 92.7724 31.5584C92.7071 29.9729 91.9062 28.5861 90.3447 28.2911C89.6081 28.1517 88.5991 28.1345 87.9439 28.6062C87.6625 28.8097 87.3752 29.0721 87.2313 29.3446C87.0726 29.6472 87.0726 29.9504 87.0726 29.9504V35.7483ZM87.0404 37.3219V44.0243C87.0404 44.0243 87.0845 44.2637 87.1335 44.4112C87.3632 45.1065 88.1075 45.3278 88.765 45.4734C89.4872 45.6323 90.1495 45.6725 90.9289 45.4734C92.722 45.0136 93.933 43.6096 93.8816 41.7611C93.8451 40.4241 93.1723 39.6895 92.1983 38.771C90.6795 37.3382 87.0404 37.3219 87.0404 37.3219Z" fill="#00AFDD"/>
<path d="M70.259 22.2783C70.259 20.3868 71.7944 18.8544 73.688 18.8544C75.5814 18.8544 77.117 20.3868 77.117 22.2783C77.117 24.1699 75.5814 25.7032 73.688 25.7032C71.7944 25.7032 70.259 24.1699 70.259 22.2783Z" fill="#00AFDD"/>
</g>
<defs>
<clipPath id="clip0_67_612">
<rect width="32" height="30" fill="white" transform="translate(68 18)"/>
</clipPath>
</defs>
</svg>
