<svg width="167" height="71" viewBox="0 0 167 71" fill="none" xmlns="http://www.w3.org/2000/svg">
<g clip-path="url(#clip0_67_557)">
<path d="M45.4037 31.7581C45.4037 31.8067 45.4037 31.8544 45.4029 31.9029C45.3887 31.9461 45.4097 31.9749 45.4487 31.9651C45.4742 31.959 45.4922 31.9219 45.5139 31.8984C46.1389 31.1744 46.8403 30.5536 47.7916 30.3201C49.2147 29.9714 50.5613 30.189 51.8201 30.9425C53.2905 31.8226 54.073 33.1999 54.3416 34.8365C54.6537 36.7362 54.5389 38.6176 53.4098 40.2807C52.397 41.7733 50.9799 42.5283 49.1772 42.5935C47.6918 42.6473 46.5042 42.0765 45.5154 41.0024C45.5117 40.9902 45.5094 40.9774 45.5027 40.9675C45.4974 40.9584 45.4847 40.9448 45.4794 40.9463C45.3046 41.0001 45.3872 41.1479 45.3872 41.2495C45.3812 42.8308 45.3834 44.4128 45.3834 45.994C44.3609 45.994 43.3376 45.9849 42.3151 46.0009C42.0728 46.0047 42 45.9713 42.0007 45.6984C42.0127 42.2092 42.009 38.7199 42.009 35.2307V30.3937C43.1328 30.3937 44.2566 30.3937 45.3804 30.3937C45.3804 30.3937 45.3842 30.3967 45.3834 30.3967C45.3902 30.8508 45.3969 31.3048 45.4037 31.7589V31.7581ZM51.0864 36.4057C51.1022 36.1138 51.0647 35.8326 51.0099 35.5498C50.8501 34.7251 50.4668 34.0535 49.7728 33.5661C49.1952 33.1597 48.5688 33.0536 47.8771 33.1097C47.3144 33.1552 46.8283 33.3326 46.4164 33.7093C45.1583 34.8623 44.9693 36.9151 45.8448 38.3455C46.5785 39.5432 48.0429 40.1124 49.3865 39.4188C50.6138 38.7851 51.0564 37.7171 51.0864 36.4064V36.4057Z" fill="#194189"/>
<path d="M113.63 42.3493C113.628 36.9931 113.629 31.6368 113.618 26.2805C113.618 26.0159 113.731 26.0068 113.931 26.0076C114.954 26.0106 115.978 26.0031 117 25.9993V42.3569C115.877 42.3539 114.753 42.3516 113.63 42.3486V42.3493Z" fill="#194189"/>
<path d="M71.6743 42.6677C69.783 42.6783 68.1664 41.9983 66.876 40.6096C65.9743 39.6386 65.4761 38.4636 65.3208 37.1219C65.116 35.3549 65.6314 33.8184 66.6825 32.4463C67.4424 31.4548 68.4702 30.8378 69.648 30.4694C70.4575 30.2162 71.2925 30.1093 72.1334 30.1715C73.5731 30.2783 74.8957 30.7119 76.0225 31.6762C77.2191 32.6995 77.8927 33.9813 78.0878 35.5535C78.3436 37.6169 77.7674 39.3975 76.3106 40.8393C75.3525 41.7876 74.1725 42.3728 72.8229 42.5873C72.4395 42.648 72.0607 42.6525 71.6751 42.6684L71.6743 42.6677ZM74.7794 36.4586C74.7794 36.3449 74.7809 36.2312 74.7794 36.1182C74.7771 35.9924 74.7921 35.862 74.7636 35.743C74.4358 34.3695 73.6833 33.4068 72.2332 33.1649C70.9736 32.955 69.9901 33.29 69.2421 34.33C68.6427 35.1631 68.513 36.1092 68.7043 37.1242C69.0779 39.1026 71.1267 40.3519 73.0854 39.3998C74.282 38.8184 74.7921 37.7783 74.7794 36.4586V36.4586Z" fill="#DA0C33"/>
<path d="M106.789 37.5753C105.527 37.5753 104.265 37.5813 103.004 37.5707C102.725 37.5684 102.643 37.6003 102.745 37.9156C103.067 38.8996 103.716 39.575 104.679 39.8281C105.965 40.167 107.13 39.7736 108.13 38.9155C108.34 38.7358 108.451 38.6812 108.677 38.8942C109.172 39.362 109.7 39.7948 110.22 40.236C110.377 40.3686 110.35 40.4838 110.227 40.6165C109.225 41.6967 108.033 42.4055 106.554 42.5927C105.339 42.7466 104.154 42.692 103.007 42.2152C101.553 41.6118 100.493 40.596 99.8287 39.1573C99.314 38.0422 99.2082 36.8529 99.3148 35.659C99.4266 34.4127 99.8924 33.2886 100.672 32.288C101.516 31.2047 102.611 30.5043 103.914 30.2784C106.014 29.9138 107.979 30.2761 109.461 31.9885C110.161 32.7974 110.56 33.7874 110.78 34.8494C110.947 35.6536 110.911 36.4625 110.93 37.2728C110.936 37.5343 110.842 37.5828 110.61 37.5806C109.336 37.5715 108.061 37.576 106.788 37.5753H106.789ZM107.628 35.1685C107.539 34.8888 107.48 34.5954 107.357 34.3324C106.988 33.544 106.402 33.0695 105.507 32.9505C104.892 32.8686 104.329 32.9573 103.842 33.2878C103.118 33.779 102.789 34.5469 102.627 35.3921C102.646 35.4073 102.665 35.4346 102.684 35.4346C104.292 35.4391 105.901 35.4422 107.509 35.4422C107.74 35.4422 107.71 35.3133 107.629 35.1685H107.628Z" fill="#007E40"/>
<path d="M91.2717 30.4042C90.8771 31.4177 90.4833 32.432 90.0879 33.4455C89.4202 35.1579 88.7466 36.868 88.0849 38.5827C87.5912 39.863 87.1134 41.1501 86.6287 42.4342C85.6025 42.4433 84.5762 42.4532 83.5499 42.4623C83.1733 41.6936 82.9032 40.8803 82.5926 40.0851C81.6954 37.7898 80.8042 35.4922 79.9159 33.193C79.5663 32.2887 79.2317 31.3791 78.8896 30.4709C78.8934 30.4444 78.8979 30.4179 78.9017 30.3906C78.9264 30.3838 78.9512 30.3769 78.9752 30.3701C80.1245 30.3807 81.2745 30.3906 82.4239 30.4012C82.8507 31.6618 83.2836 32.9194 83.7022 34.1823C84.1411 35.5058 84.5649 36.8339 84.9978 38.1589C85.0083 38.1915 85.0413 38.2173 85.1021 38.2954C85.3684 37.501 85.6212 36.7422 85.8763 35.9841C86.5027 34.1224 87.1291 32.2607 87.7555 30.3982C88.9274 30.3997 90.0992 30.402 91.2702 30.4035L91.2717 30.4042Z" fill="#1B181C"/>
<path d="M60.4377 32.5085C60.9426 31.4503 61.6096 30.5733 62.8234 30.2867C63.1865 30.2011 63.5488 30.1548 63.9217 30.1617C64.0837 30.1647 64.1347 30.2125 64.134 30.3777C64.1272 31.4238 64.1235 32.4699 64.1362 33.516C64.1385 33.732 64.035 33.7244 63.8857 33.7275C63.4543 33.7358 63.0327 33.804 62.6156 33.92C61.4655 34.2391 60.8766 35.0927 60.542 36.163C60.4115 36.5807 60.3785 37.0302 60.3125 37.4669C60.3027 37.5305 60.3545 37.6033 60.377 37.6723C60.2855 37.7966 60.3282 37.9406 60.3275 38.0748C60.3237 39.5007 60.3252 40.9258 60.3252 42.3516C60.3252 42.3516 60.299 42.3683 60.2997 42.3683C59.1819 42.3585 58.0641 42.3478 56.9463 42.338C56.9463 38.3629 56.9463 34.387 56.9456 30.4118C58.0641 30.402 59.1827 30.3921 60.3012 30.3815C60.3012 30.3815 60.323 30.3951 60.3222 30.3951C60.3222 31.0812 60.3222 31.7672 60.3252 32.4525C60.3252 32.5449 60.3312 32.5449 60.4377 32.5078V32.5085Z" fill="#007E40"/>
<path d="M96.7393 30.3882C96.7431 32.6798 96.7506 34.9713 96.7506 37.2629C96.7506 38.9624 96.7416 40.6619 96.7371 42.3614C95.6253 42.3644 94.5135 42.3667 93.4017 42.3697C93.3942 42.3538 93.3822 42.3417 93.3672 42.3349C93.3672 38.3605 93.3672 34.3854 93.3672 30.411C93.3807 30.4064 93.3897 30.3973 93.3934 30.3829C94.509 30.3852 95.6238 30.3867 96.7393 30.389V30.3882Z" fill="#DA0C33"/>
<path d="M93.2965 26.0273C94.3895 26.0227 95.4833 26.0197 96.5763 26.0106C96.7339 26.0091 96.8322 26.028 96.8299 26.2281C96.8164 27.1689 96.8142 28.1096 96.8089 29.0495C95.6506 29.0564 94.4923 29.0632 93.334 29.07C93.31 29.0457 93.286 29.0215 93.2627 28.998C93.2747 28.008 93.286 27.0172 93.2972 26.0265L93.2965 26.0273Z" fill="#DA0C33"/>
</g>
<defs>
<clipPath id="clip0_67_557">
<rect width="75" height="20" fill="white" transform="translate(42 26)"/>
</clipPath>
</defs>
</svg>
